<?xml version="1.0" encoding="UTF-8"?>
<svg id="Capa_1" xmlns="http://www.w3.org/2000/svg" version="1.1" viewBox="0 0 670 160">
  <!-- Generator: Adobe Illustrator 29.8.2, SVG Export Plug-In . SVG Version: 2.1.1 Build 3)  -->
  <defs>
    <style>
      .st0 {
        fill: #fff;
      }

      .st1 {
        fill: #ca0876;
      }
    </style>
  </defs>
  <path class="st1" d="M180.43,58.6c-1.65-3.06-4.06-5.65-7-7.5L115.98,13.6c-3.37-2.17-7.29-3.32-11.3-3.3-4,0-7.93,1.14-11.3,3.3l-57.55,37.5c-2.92,1.88-5.32,4.46-7,7.5-1.64,3.08-2.5,6.51-2.5,10v25.6c0,1.54.37,3.05,1.1,4.4.73,1.52,1.88,2.8,3.3,3.7l68.4,45.7c3.39,2.27,7.81,2.27,11.2,0l37.8-25.2c.54-.38,1.05-.81,1.5-1.3,1.91-1.87,2.99-4.43,3-7.1v-25.8c-.02-3.51-.95-6.96-2.7-10l-.1-.1c-1.84-3.11-4.46-5.7-7.6-7.5l-34.5-22.1c-.86-.55-1.87-.83-2.9-.8-1.01,0-1.99.31-2.8.9l-36.7,24.5c-2.32,1.61-2.9,4.79-1.29,7.11.35.5.79.94,1.29,1.29l36.8,24.6c.79.55,1.74.83,2.7.8.99-.02,1.95-.29,2.8-.8l20.5-13.4c.35-.21.72-.38,1.1-.5,2.68-.92,5.6.5,6.52,3.18.18.52.27,1.07.28,1.62v7.8c0,.96-.28,1.9-.8,2.7-.4.59-.91,1.1-1.5,1.5l-26.1,17.4c-.82.58-1.8.89-2.8.9-.99,0-1.96-.28-2.8-.8l-56.7-37.5c-.59-.4-1.1-.91-1.5-1.5-.44-.76-.68-1.62-.7-2.5v-12.3c.02-1.49.36-2.95,1-4.3.8-1.67,2.05-3.09,3.6-4.1l51.3-33.9c1.68-1.14,3.67-1.74,5.7-1.7,2.02,0,4,.6,5.7,1.7l51.3,33.9c1.55,1.01,2.8,2.43,3.6,4.1.67,1.37,1.01,2.88,1,4.4v12.2c0,1.68.82,3.25,2.2,4.2l6.7,4.6c2.22,1.58,5.31,1.06,6.89-1.17.61-.86.93-1.88.91-2.93v-21.3c0-3.49-.87-6.92-2.5-10l-.1-.2ZM104.63,87.8l-15.2-10.2,15.2-10.2,15.2,10.2-15.2,10.2Z"/>
  <path class="st0" d="M404.42,111.1c-.79-1.26-1.2-2.71-1.2-4.2v-28.5c.03-4.4-.73-8.77-2.25-12.9-1.6-4.04-4.53-7.43-8.3-9.6-3.9-2.4-9.5-3.7-16.7-3.7s-16.9,2-26.7,6l4.8,14.3c3.62-1.56,7.36-2.8,11.2-3.7,3.14-.76,6.36-1.17,9.6-1.2,3.18-.03,6.32.76,9.1,2.3,2.2,1.5,3.4,4.3,3.4,8.4v8.6c-2.7-.5-5.5-.9-8.2-1.2-2.62-.31-5.26-.48-7.9-.5-6.4,0-11.5.9-15.2,2.8-3.45,1.61-6.26,4.32-8,7.7-1.66,3.53-2.48,7.4-2.4,11.3,0,6.4,1.5,11.7,4.6,15.9s7.9,6.3,14.4,6.3,8.7-.9,12.6-2.8c4.46-2.22,8.54-5.12,12.1-8.6,1.41,3.09,3.67,5.72,6.5,7.6,3,2,6.9,3.1,11.9,3.1h3.4v-15.5h-1.6c-2.4,0-4.1-.7-4.9-2l-.25.1ZM387.13,105.3c-4.5,4.3-8.1,7-11,8.2-2.39,1.1-4.97,1.71-7.6,1.8-1.97.09-3.86-.76-5.1-2.3-1.29-1.8-1.92-3.99-1.8-6.2,0-2.6.8-5.2,2.4-6.7s4.3-2.3,8.1-2.3c4.99.04,9.98.48,14.9,1.3v6.3l.1-.1ZM461.13,55.1c-2.39-.91-4.87-1.58-7.4-2-2.47-.48-4.98-.72-7.5-.7-10.1,0-17.9,3.1-23.2,9.4s-8,14.7-8,25.3v7.9c0,10.9,2.2,19.4,6.6,25.4s10.6,9.1,18.6,9.1,6.9-.8,10.2-2.4,7.1-4.7,11.6-9.1v10.1h15.95V19.7h-16.8l-.05,35.4ZM461.13,104.2c-3.6,3.7-6.7,6.2-9.2,7.5-2.2,1.24-4.67,1.92-7.2,2-3.66.17-7.16-1.53-9.3-4.5-2.2-3-3.3-7.8-3.3-14.3v-7.9c0-6,1.2-10.8,3.7-14.3s6.5-5.3,12.1-5.3,8.4,1,13.2,2.9v33.9h0ZM543.03,111.1c-.79-1.26-1.2-2.71-1.2-4.2v-28.5c.02-4.4-.76-8.77-2.3-12.9-1.6-4.04-4.53-7.43-8.3-9.6-3.9-2.4-9.5-3.7-16.7-3.7s-16.9,2-26.7,6l4.8,14.3c3.62-1.56,7.36-2.8,11.2-3.7,3.14-.76,6.36-1.17,9.6-1.2,3.18-.03,6.32.76,9.1,2.3,2.2,1.5,3.4,4.3,3.4,8.4v8.6c-2.7-.5-5.5-.9-8.2-1.2-2.62-.31-5.26-.48-7.9-.5-6.4,0-11.5.9-15.2,2.8-3.45,1.61-6.26,4.32-8,7.7-1.66,3.53-2.48,7.4-2.4,11.3,0,6.4,1.5,11.7,4.6,15.9s7.9,6.3,14.4,6.3,8.7-.9,12.6-2.8c4.46-2.22,8.54-5.12,12.1-8.6,1.41,3.09,3.67,5.72,6.5,7.6,3,2,6.9,3.1,11.9,3.1h3.4v-15.5h-1.6c-2.4,0-4.1-.7-4.9-2l-.2.1ZM525.73,105.3c-4.5,4.3-8.1,7-11,8.2-2.39,1.1-4.97,1.71-7.6,1.8-1.97.09-3.86-.76-5.1-2.3-1.29-1.8-1.92-3.99-1.8-6.2,0-2.6.8-5.2,2.4-6.7s4.3-2.3,8.1-2.3c4.99.04,9.98.48,14.9,1.3v6.3l.1-.1ZM606.83,70.4c3.85-5.34,7.35-10.92,10.5-16.7h-19.3c-3.25,6.03-7,11.79-11.2,17.2-4.47,5.72-9.28,11.16-14.4,16.3V19.7h-16.8v108.1h16.8v-22.1c3.2-2.9,6.3-5.8,9.2-8.8l18.35,30.8h20.3l-26-41.5c4.6-5.4,8.8-10.7,12.6-15.9l-.05.1ZM625.97,53.8h16.8v74.1h-16.8V53.8ZM625.97,22.3h17.7v17.4h-17.7v-17.4ZM324.82,55.4c-4.55-2.09-9.5-3.15-14.5-3.1-5.1,0-11.8,1.4-16.5,4.2-4.67,2.8-8.42,6.9-10.8,11.8-2.63,5.63-3.93,11.79-3.8,18v8.8c0,10.3,2.8,18.6,8.5,24.8s14,9.4,25,9.4,8.2-.4,12.7-1.3c4.9-.98,9.69-2.46,14.3-4.4l-4.75-14.2c-3.56,1.48-7.24,2.66-11,3.5-3.38.78-6.83,1.18-10.3,1.2-6.2,0-10.8-1.5-13.6-4.5s-4.3-7.5-4.5-13.6c0,0,10.7,5.4,25.7,0,2.26-.85,4.47-1.85,6.6-3,4.65-2.47,8.87-5.68,12.5-9.5v-1.3c0-6.9-1.4-12.6-4.3-17-2.71-4.25-6.55-7.64-11.1-9.8h-.15ZM295.53,83.1c.4-5.4,1.8-9.5,4.3-12.3s6-4.3,10.4-4.3c3.51-.19,6.95,1.07,9.5,3.5,1.77,1.62,2.99,3.75,3.5,6.1-9.4,11-27.7,7-27.7,7h0ZM234.82,28.5h-17.5v99.3h56.3v-16.8h-38.8V28.5h0Z"/>
</svg>